<?xml version="1.0" encoding="utf-8"?>
<svg xmlns="http://www.w3.org/2000/svg" height="16" viewBox="0 0 16 16" width="16">
  <path d="m10 0v1h1v-1zm0 1h-1v1h1zm-2 3v1h1v-1zm0 1h-1v1h1zm-1 1h-1-1v1h1 1zm-2 1h-1-1v-1h-1v1h-1v1h-1v1h1v1h1v1h1v1h1v1h1v1 1h1v-1-1-1-1h-1-1v-1h-1v-1h-1v-1h1 1 1zm1 8v1h1v-1zm1 0h1v1h1 1v-1h-1v-1h-1v-1h-1v1z" fill="#2f9f5e"/>
  <path d="m11 0v1h1v1h-1v-1h-1v1 1 1h-1v1h-1v1h-1v1h-1-1v1h-1-1-1v1h1v1h1v1h1 1v1h1v1h1v-1-1h1v-1h1v-1h1v-1-1-1h1v-1h1v-1h1v-1h1v-1-1h-1v-1h-1-1zm-3 13v1h1v-1z" fill="#26ad5f"/>
  <path d="m14 0v1h1v-1zm1 1v1 1h-1v1h1 1v-1-1-1zm-3 4v1h1 1v-1h-1zm0 1h-1v1h1zm-1 2v1h1 1v-1h-1zm0 1h-1v1h-1v1h-1v1 1h1v-1h1v-1h1v-1z" fill="#2cb566"/>
  <path d="m9 2v1 1h1v-1-1z" fill="#23a75b"/>
  <path d="m0 3v1 1 1 1h1v-1h1v-1h-1v-1-1zm4 12v1h1v-1z" fill="#1c944f"/>
  <path d="m14 5v1h1v-1zm-2 4v1h1v-1z" fill="#34ba6d"/>
  <path d="m1 6v1h1v-1zm0 1h-1v1h1zm3 6v1 1h1v-1-1zm1 2v1h1v-1zm2 0v1h1v-1z" fill="#259a57"/>
</svg>
