<?xml version="1.0" encoding="utf-8"?>
<svg xmlns="http://www.w3.org/2000/svg" height="100" viewBox="0 0 100 100" width="100">
  <path d="m15 0c-8.3 0-15 6.7-15 15v70c0 8.3 6.7 15 15 15h70c8.3 0 15-6.7 15-15v-70c0-8.3-6.7-15-15-15zm24 14a4 4 0 1 1 0 8c-3.3 0-5.1.8-6.2 1.8-1 1.1-1.8 2.9-1.8 6.2v8c0 4.7-1.2 8.9-4.2 11.8 0 .1-.1.1-.2.2.1.1.2.1.2.2 3 2.9 4.2 7.1 4.2 11.8v8c0 3.3.8 5.1 1.8 6.2 1.1 1 2.9 1.8 6.2 1.8a4 4 0 1 1 0 8c-4.7 0-8.9-1.2-11.8-4.2-3-2.9-4.2-7.1-4.2-11.8v-8c0-3.3-.8-5.1-1.8-6.2-1.1-1-2.9-1.8-6.2-1.8a4 4 0 0 1 0-8c3.3 0 5.1-.8 6.2-1.8 1-1.1 1.8-2.9 1.8-6.2v-8c0-4.7 1.2-8.9 4.2-11.8 2.9-3 7.1-4.2 11.8-4.2zm22 0c4.7 0 8.9 1.2 11.8 4.2 3 2.9 4.2 7.1 4.2 11.8v8c0 3.3.8 5.1 1.8 6.2 1.1 1 2.9 1.8 6.2 1.8a4 4 0 0 1 0 8c-3.3 0-5.1.8-6.2 1.8-1 1.1-1.8 2.9-1.8 6.2v8c0 4.7-1.2 8.9-4.2 11.8-2.9 3-7.1 4.2-11.8 4.2a4 4 0 1 1 0-8c3.3 0 5.1-.8 6.2-1.8 1-1.1 1.8-2.9 1.8-6.2v-8c0-4.7 1.2-8.9 4.2-11.8 0-.1.1-.1.2-.2-.1-.1-.2-.1-.2-.2-3-2.9-4.2-7.1-4.2-11.8v-8c0-3.3-.8-5.1-1.8-6.2-1.1-1-2.9-1.8-6.2-1.8a4 4 0 1 1 0-8z"/>
</svg>
