<svg height="100" viewBox="0 0 100 100" width="100" xmlns="http://www.w3.org/2000/svg" xmlns:xlink="http://www.w3.org/1999/xlink"><radialGradient id="a" cx="50%" cy="50%" r="60%"><stop offset="0" stop-color="#f0d948" stop-opacity="0"/><stop offset=".85" stop-color="#f0d948" stop-opacity="0"/><stop offset="1" stop-color="#f0b81f"/></radialGradient><linearGradient id="b"><stop offset="0" stop-color="#f0b81f"/><stop offset=".15" stop-color="#f0d948" stop-opacity="0"/><stop offset=".75" stop-color="#f0d948" stop-opacity="0"/><stop offset="1" stop-color="#f0b81f"/></linearGradient><linearGradient id="c" x1="0%" x2="100%" xlink:href="#b" y1="0%" y2="0%"/><linearGradient id="d" x1="0%" x2="0%" xlink:href="#b" y1="0%" y2="100%"/><clipPath id="e"><path d="m0 0h25v100h-25z"/></clipPath><clipPath id="f"><path d="m75 0h25v100h-25z"/></clipPath><clipPath id="g"><path d="m0 0h100v47.2h-100z"/></clipPath><rect fill="#f0d948" height="100" rx="22" width="100"/><rect fill="url(#a)" height="100" rx="22" width="100"/><rect fill="url(#c)" height="100" opacity=".7" rx="22" width="100"/><rect fill="url(#d)" height="100" opacity=".7" rx="22" width="100"/><g fill="#30353f"><circle cx="50" cy="65" r="25"/><path d="m25 77v-30h-5v30z"/><circle clip-path="url(#e)" cx="20" cy="62" r="15"/><path d="m75 77v-30h5v30z"/><circle clip-path="url(#f)" cx="80" cy="62" r="15"/></g><circle clip-path="url(#g)" cx="50" cy="47" fill="none" r="27.5" stroke="#30353f" stroke-width="5"/></svg>