<?xml version="1.0" encoding="utf-8"?>
<svg xmlns="http://www.w3.org/2000/svg" height="100" viewBox="0 0 100 100" width="100">
  <!-- top containers -->
  <g>
    <!-- top row -->
    <rect x="46" y="13" width="10.5" height="9.5" ry="0.5" rx="0.5"/>

    <!-- mid row -->
    <rect x="21" y="24.5" width="10.5" height="9.5" ry="0.5" rx="0.5"/>
    <rect x="33.5" y="24.5" width="10.5" height="9.5" ry="0.5" rx="0.5"/>
    <rect x="46" y="24.5" width="10.5" height="9.5" ry="0.5" rx="0.5"/>

    <!-- bottom row -->
    <rect x="8.5" y="36" width="10.5" height="9.5" ry="0.5" rx="0.5"/>
    <rect x="21" y="36" width="10.5" height="9.5" ry="0.5" rx="0.5"/>
    <rect x="33.5" y="36" width="10.5" height="9.5" ry="0.5" rx="0.5"/>
    <rect x="46" y="36" width="10.5" height="9.5" ry="0.5" rx="0.5"/>
    <rect x="58.5" y="36" width="10.5" height="9.5" ry="0.5" rx="0.5"/>
  </g>

  <!-- bottom whale -->
  <path d="m5.5 48
    h63
    c3 0 6 -1 7 -1.5
    c-3.5 -4.5 -2.5 -12.5 1 -17
    c6 3 8.5 10 8.5 10.5
    c7 -0.5 8 0 12.5 2.5
    c-5 9 -10 9 -15 9
    c-19 44 -83 36 -77 -3.5
    z"/>
</svg>
