<?xml version="1.0"?>
<svg xmlns="http://www.w3.org/2000/svg" height="100" viewBox="0 0 100 100" width="100">
  <rect fill="none" height="98.8" ry="24.5" stroke="#666" stroke-width="1.2" width="98.8" x=".6" y=".6"/>
  <g fill="#666">
    <rect height="100" width=".6" x="7.5"/>
    <rect height="100" width=".6" x="30.8"/>
    <rect height="100" width=".6" x="49.7"/>
    <rect height="100" width=".6" x="68.6"/>
    <rect height="100" width=".6" x="91.9"/>
    <rect height=".6" width="100" y="7.5"/>
    <rect height=".6" width="100" y="30.8"/>
    <rect height=".6" width="100" y="49.7"/>
    <rect height=".6" width="100" y="68.6"/>
    <rect height=".6" width="100" y="91.9"/>
    <g transform="matrix(.707 .707 -.707 .707 50 -20.7)">
      <rect height="141" width=".6" x="49.7" y="-20.5"/>
      <rect height=".6" width="141" x="-20.5" y="49.7"/>
    </g>
  </g>
  <g fill="none" stroke="#666" stroke-width=".6">
    <circle cx="50" cy="50" r="18.8"/>
    <circle cx="50" cy="50" r="26.7"/>
    <circle cx="50" cy="50" r="42.2"/>
  </g>
</svg>
