<?xml version="1.0"?>
<svg xmlns="http://www.w3.org/2000/svg" xmlns:xlink="http://www.w3.org/1999/xlink" height="100" viewBox="0 0 100 100" width="100">
  <linearGradient id="fill" gradientUnits="userSpaceOnUse" x1="37" x2="61" y1="12" y2="92">
    <stop offset="0" stop-color="#59f"/>
    <stop offset="1" stop-color="#aff"/>
  </linearGradient>
  <linearGradient id="stroke" gradientUnits="userSpaceOnUse" x1="37" x2="61" y1="12" y2="92">
    <stop offset="0" stop-color="#48f"/>
    <stop offset="1" stop-color="#9df"/>
  </linearGradient>
  <path d="m34.7 24.1v8.5 9 25.2c-2.4-1.3-4.9-2.2-7.7-2.2-8.2 0-15 6.7-15 14.9s6.7 14.9 15 14.9c8.2 0 15-6.7 15-14.9v-39.9l38.2-10.8v25.4c-2.4-1.3-4.9-2.2-7.7-2.2-8.2 0-15 6.7-15 14.9s6.7 14.9 15 14.9c7.7 0 14.1-5.8 15-13.3v-41.7-6.3-11.2z" fill="#ccc" stroke="#c0c0c0" stroke-width="1.3"/>
  <path d="m31.1 20.4v8.5 9 25.2c-2.4-1.3-4.9-2.2-7.7-2.2-8.2 0-15 6.7-15 14.9s6.7 14.9 15 14.9c8.2 0 15-6.7 15-14.9v-39.9l38-10.8v25.4c-2.4-1.3-4.9-2.2-7.7-2.2-8.2 0-15 6.7-15 14.9s6.7 14.9 15 14.9c7.7 0 14.1-5.8 15-13.3v-41.6-6.3-11.2z" fill="url(#fill)" stroke="url(#stroke)" stroke-width=".8"/>
</svg>
