<?xml version="1.0"?>
<svg xmlns="http://www.w3.org/2000/svg" xmlns:xlink="http://www.w3.org/1999/xlink" height="100" viewBox="0 0 100 100" width="100">
  <mask id="main">
    <rect fill="#fff" height="100" width="100"/>
    <path d="m68 36.2h4.7v-11.7h-4.7c-13.5 0-21.2 11.5-27.9 21.5-6.1 9.1-11.3 17.7-19.7 17.7h-7.7v11.7h7.7c13.5 0 21.2-12.2 27.9-22.3 6-9 11.2-16.9 19.7-16.9zm-35.5 6.7c2.1-3.1 4.4-6.5 6.4-9.2-4.9-5.2-10.7-9-18.5-9h-7.7v11.7s2.2-.1 7.7 0c5.3.2 8.6 2.6 12.2 6.5zm40.2 20.9h-4.7c-5.2 0-9.1-2.9-12.8-7.3-2.1 3.2-4.4 6.6-6.4 9.3 5 5.5 11 9.7 19.2 9.7h4.7z"/>
    <g stroke="#000" stroke-linejoin="round" stroke-width="4">
      <path d="m74 18.5v24l13-12z"/>
      <path d="m74 57.5v24l13-12z"/>
    </g>
  </mask>
  <rect fill="#3599db" height="100" mask="url(#main)" ry="25" width="100"/>
</svg>
