<svg xmlns="http://www.w3.org/2000/svg" xmlns:xlink="http://www.w3.org/1999/xlink" width="100" height="100"><radialGradient id="b" cx="50%" cy="50%" r="60%"><stop offset="0" stop-color="#f0d948" stop-opacity="0"/><stop offset=".8" stop-color="#f0d948" stop-opacity="0"/><stop offset="1" stop-color="#f0b81f"/></radialGradient><linearGradient id="a"><stop offset="0" stop-color="#f0b81f"/><stop offset=".1" stop-color="#f0d948" stop-opacity="0"/><stop offset=".8" stop-color="#f0d948" stop-opacity="0"/><stop offset="1" stop-color="#f0b81f"/></linearGradient><linearGradient xlink:href="#a" id="c" x1="0%" x2="100%" y1="0%" y2="0%"/><linearGradient xlink:href="#a" id="d" x1="0%" x2="0%" y1="0%" y2="100%"/><clipPath id="e"><path d="M0 0h25v100H0z"/></clipPath><clipPath id="f"><path d="M75 0h25v100H75z"/></clipPath><clipPath id="g"><path d="M0 0h100v47.2H0z"/></clipPath><rect width="100" height="100" fill="#f0d948" rx="22"/><rect width="100" height="100" fill="url(#b)" rx="22"/><rect width="100" height="100" fill="url(#c)" opacity=".7" rx="22"/><rect width="100" height="100" fill="url(#d)" opacity=".7" rx="22"/><g fill="#30353f"><circle cx="50" cy="65" r="25"/><path d="M25 77V47h-5v30z"/><circle cx="20" cy="62" r="15" clip-path="url(#e)"/><path d="M75 77V47h5v30z"/><circle cx="80" cy="62" r="15" clip-path="url(#f)"/></g><circle cx="50" cy="47" r="27.5" fill="none" stroke="#30353f" stroke-width="5" clip-path="url(#g)"/></svg>