<svg xmlns="http://www.w3.org/2000/svg" width="100" height="100"><g fill="#fafafa"><rect width="10.5" height="9.5" x="46" y="13" rx=".5"/><rect width="10.5" height="9.5" x="21" y="24.5" rx=".5"/><rect width="10.5" height="9.5" x="33.5" y="24.5" rx=".5"/><rect width="10.5" height="9.5" x="46" y="24.5" rx=".5"/><rect width="10.5" height="9.5" x="8.5" y="36" rx=".5"/><rect width="10.5" height="9.5" x="21" y="36" rx=".5"/><rect width="10.5" height="9.5" x="33.5" y="36" rx=".5"/><rect width="10.5" height="9.5" x="46" y="36" rx=".5"/><rect width="10.5" height="9.5" x="58.5" y="36" rx=".5"/><path d="M68.5 48c3 0 6-1 7-1.5-3.5-4.5-2.5-12.5 1-17 6 3 8.5 10 8.5 10.5 7-.5 8 0 12.5 2.5-5 9-10 9-15 9-19 44-83 36-77-3.5z"/></g></svg>