<svg xmlns="http://www.w3.org/2000/svg" width="100" height="100"><linearGradient id="a" x1="37" x2="61" y1="12" y2="92" gradientUnits="userSpaceOnUse"><stop offset="0" stop-color="#59f"/><stop offset="1" stop-color="#aff"/></linearGradient><linearGradient id="b" x1="37" x2="61" y1="12" y2="92" gradientUnits="userSpaceOnUse"><stop offset="0" stop-color="#48f"/><stop offset="1" stop-color="#9df"/></linearGradient><path fill="#ccc" stroke="silver" stroke-width="1.3" d="M34.7 24.1v42.7a16 16 0 0 0-7.7-2.2c-8.2 0-15 6.7-15 14.9s6.7 14.9 15 14.9a15 15 0 0 0 15-14.9V39.6l38.2-10.8v25.4a16 16 0 0 0-7.7-2.2c-8.2 0-15 6.7-15 14.9s6.7 14.9 15 14.9c7.7 0 14.1-5.8 15-13.3V9.3z"/><path fill="url(#a)" stroke="url(#b)" stroke-width=".8" d="M31.1 20.4v42.7a16 16 0 0 0-7.7-2.2c-8.2 0-15 6.7-15 14.9s6.7 14.9 15 14.9a15 15 0 0 0 15-14.9V35.9l38-10.8v25.4a16 16 0 0 0-7.7-2.2c-8.2 0-15 6.7-15 14.9s6.7 14.9 15 14.9c7.7 0 14.1-5.8 15-13.3V5.7z"/></svg>